<?xml version="1.0" encoding="UTF-8"?>
<svg id="Layer_1" xmlns="http://www.w3.org/2000/svg" version="1.1" viewBox="0 0 66.2 83.7">
  <!-- Generator: Adobe Illustrator 29.7.1, SVG Export Plug-In . SVG Version: 2.1.1 Build 8)  -->
  <defs>
    <style>
      .st0 {
        fill: #626667;
        opacity: .4;
      }

      .st1 {
        fill: none;
        stroke: #121112;
        stroke-linecap: round;
        stroke-linejoin: round;
        stroke-width: 2.9px;
      }
    </style>
  </defs>
  <path class="st0" d="M24.1,38.8l.9-.6c2.3-1.4,4.5-3,6.7-4.4s.7-.5,1.1-.6c2.3,3.5,5.6,7.6,7.6,11l.9-.6,11.5-7.5c6.9,10.3,14,17.5,11.5,30.9-.5,2.7-3.9,13.4-6.1,14.7s-13.2.2-16-.5c-13.7-3.4-15.9-12.6-23.5-22.7l11.4-7.5,1-.5c-2.2-2.9-4.8-8.2-7-11.5Z"/>
  <g>
    <path class="st1" d="M30,50.9l-11.4,7.5c7.5,10.1,9.8,19.3,23.5,22.7,2.8.7,13.7,1.8,16,.5s5.6-11.9,6.1-14.7c2.4-13.4-4.6-20.6-11.5-30.9l-11.5,7.5"/>
    <path class="st1" d="M14.3,23.4c7,10.7,2.9,4.7,9.8,15.4s4.7,8.6,7,11.5c7,9.1,15.1,3.6,9.4-6.2-2-3.5-5.3-7.5-7.6-11-7-10.7-3.1-4.5-10.1-15.2"/>
    <path class="st1" d="M25,38.2c2.3-1.4,4.5-3,6.7-4.4"/>
    <path class="st1" d="M13.1,21.8c-5.9-.4-8.9-3.6-11.6-9.7L17.7,1.5c2.8,4.9,5.6,7.2,4.5,12.8s-5.6,7.8-9.2,7.5Z"/>
  </g>
</svg>