<?xml version="1.0" encoding="UTF-8"?>
<svg id="Layer_1" xmlns="http://www.w3.org/2000/svg" version="1.1" viewBox="0 0 71.4 88.6">
  <!-- Generator: Adobe Illustrator 29.7.1, SVG Export Plug-In . SVG Version: 2.1.1 Build 8)  -->
  <defs>
    <style>
      .st0 {
        fill: #42434b;
      }

      .st1, .st2 {
        fill: #41434b;
      }

      .st3 {
        fill: #fff;
      }

      .st2 {
        stroke: #fff;
        stroke-miterlimit: 10;
      }
    </style>
  </defs>
  <g>
    <path class="st0" d="M67.3,0c1.4,0,3.5-.1,4,1.8s.2,9.5,0,11.2c-1.6,17.5-16.2,31.3-34.1,29.6-.9.4-3.1,8.4-3.4,9.8-.4,2.7,1.2,10.2-3.4,8.2s-.1-9.3.2-10.7c1.8-9.3,12.5-22.9,19.7-29s9.6-6.3,9.8-6.9c.3-1.1-.3-1.7-1.1-2.4-10.8,3.8-19.1,14.5-25.6,23.7-2.3-11.9,2.3-23.1,12.8-29.1C51.1,3.2,61.6,0,67.3,0Z"/>
    <path class="st0" d="M29.5,64.4c6.1-.7,11.3,1.6,15.2,6.2s1.6,3.3,1.8,3.4c.3.1,5.5-.9,7.4-.6,5.3.8,13.4,10,8.3,14.7H1.3c-4.1-5.3,2.5-13.9,8.6-14.7s6.7.7,7,.6,3-5,4.8-6.4,5.5-3,7.7-3.2Z"/>
    <path class="st0" d="M1.3,20.5c2.1-.7,10.7,1.3,13.1,2.2,9.6,3.5,16.7,13,13.4,23.4-4.7-6.7-10.5-14.6-18.3-17.3-2.7,2.3,2.3,4,3.8,5.4,3.2,2.9,11.4,11.6,12.6,15.5s-8.8,1.7-10.7,1.1C7.8,48.5,1.7,40.5.5,32.8s-1.1-11.7.8-12.3Z"/>
  </g>
  <g>
    <path class="st2" d="M41.2,88.1c0-.3,0-.7-.1-1l-16.6-48.2c-.5-1.3-1.9-2-3.2-1.5l-8.3,2.9c-.6.2-1.1.7-1.4,1.3-.3.6-.3,1.3-.1,1.9l15.4,44.7h14.3Z"/>
    <g>
      <g>
        <rect class="st3" x="6.1" y="45.2" width="32.3" height="16.7" transform="translate(-16.2 10.2) rotate(-19)"/>
        <path class="st3" d="M9.4,67.4l-5.8-16.8,31.5-10.9,5.8,16.8-31.5,10.9ZM4.9,51.2l5.1,14.9,29.6-10.2-5.1-14.9-29.6,10.2Z"/>
      </g>
      <g>
        <path class="st1" d="M9.7,69.3c-.4,0-.8,0-1.1-.3-.6-.3-1.1-.8-1.3-1.4l-5.5-15.8c-.2-.6-.2-1.3.1-1.9.3-.6.8-1.1,1.4-1.3l30.6-10.5c.6-.2,1.3-.2,1.9.1.6.3,1.1.8,1.3,1.4l5.5,15.8c.5,1.3-.2,2.7-1.5,3.2l-30.6,10.5c-.3,0-.5.1-.8.1ZM7.5,52.5l3.8,11.1,25.8-8.9-3.8-11.1-25.8,8.9Z"/>
        <path class="st3" d="M9.7,69.8c-.5,0-.9-.1-1.3-.3-.7-.4-1.3-1-1.5-1.7l-5.5-15.8c-.3-.8-.2-1.6.1-2.3.4-.7,1-1.3,1.7-1.5l30.6-10.5c.7-.3,1.6-.2,2.3.1.7.4,1.3,1,1.5,1.7l5.5,15.8c.5,1.6-.3,3.3-1.9,3.8l-30.6,10.5c-.3.1-.6.2-1,.2ZM34.9,38.4c-.2,0-.4,0-.7.1L3.6,49c-.5.2-.9.5-1.1,1-.2.5-.3,1,0,1.5l5.5,15.8c.2.5.5.9,1,1.1.5.2,1,.3,1.5,0l30.6-10.5c1-.4,1.6-1.5,1.2-2.5l-5.5-15.8c-.2-.5-.5-.9-1-1.1-.3-.1-.6-.2-.9-.2ZM11,64.2l-4.2-12,26.8-9.2,4.2,12-26.8,9.2ZM8.1,52.8l3.5,10.2,24.9-8.6-3.5-10.2-24.9,8.6Z"/>
      </g>
    </g>
  </g>
</svg>