<?xml version="1.0" encoding="UTF-8"?>
<svg id="Layer_1" xmlns="http://www.w3.org/2000/svg" version="1.1" viewBox="0 0 131.4 128.5">
  <!-- Generator: Adobe Illustrator 29.7.1, SVG Export Plug-In . SVG Version: 2.1.1 Build 8)  -->
  <defs>
    <style>
      .st0 {
        fill: #f6f3f4;
      }

      .st1 {
        fill: #383739;
      }

      .st2 {
        stroke-linecap: square;
      }

      .st2, .st3, .st4 {
        fill: none;
        stroke: #383739;
        stroke-linejoin: round;
      }

      .st2, .st4 {
        stroke-width: 7px;
      }

      .st3 {
        stroke-width: 2.8px;
      }

      .st3, .st4 {
        stroke-linecap: round;
      }
    </style>
  </defs>
  <g>
    <path class="st1" d="M12.6,0c2-.4,4.5.9,4.9,2.9s.2,12.3,0,12.9c-.5,1.3-5.9.6-7.3.6.6-3.9-.8-10.4,0-14S11.8.3,12.6,0Z"/>
    <path class="st1" d="M117,0c1.6-.3,4.2.8,4.6,2.4s.2,13.9-.4,14.2l-6.9-.4c.7-3.5-1.9-15.3,2.7-16.1Z"/>
    <path class="st1" d="M10.4,111.8l7.2.4c-.5,3.7,2.4,19.2-5.5,15.9-3.2-1.4-1.4-13.1-1.7-16.3Z"/>
    <path class="st1" d="M114.5,111.8h7.2c-.8,4.1,2.7,18-4.6,16.6s-2.2-13.2-2.5-16.6Z"/>
    <g>
      <path class="st0" d="M40.6,21.9c16.9,0,33.9,0,50.8,0,0,.7,0,1.5,0,2.2,0,6.6,0,13.1,0,19.7h1.1c8,0,15.9,0,23.9,0s1.1,0,1.7,0v40.5c-.6.4-1.3.2-2,.2-8.2.2-16.5-.1-24.7-.2v1.3c0,6.2,0,12.4,0,18.5,0,.7,0,1.3,0,2h-50.8c0-.7,0-1.3,0-2,0-6.2,0-12.4,0-18.5v-1.2c-8.2,0-16.5-.3-24.7-.2s-1.3,0-2,0v-40.2c.6,0,1.1,0,1.7,0,8,0,15.9,0,23.9,0h1.1c0-6.6,0-13.3,0-19.9s0-1.5,0-2.3Z"/>
      <g>
        <path class="st1" d="M40.4,66c5.5.1,5.4,12.5-.3,14.3-5.2-2-5.1-14.4.3-14.3Z"/>
        <path class="st1" d="M90.4,66.3c6.4-1.5,6.8,12.2.8,14-4.8-1.7-5.5-12.9-.8-14Z"/>
        <path class="st1" d="M32.8,59.9c7.9-.9,5,6.8,0,9s-4.2.9-6.5.8c-1.2-4.4,1.9-9.3,6.5-9.8Z"/>
        <path class="st1" d="M71,41.9c4.2-.8,9.4,3.1,9.4,7.4s-8.6,1.5-10.4-1.1-2.2-5.7,1-6.3Z"/>
        <path class="st1" d="M83.6,59.9c6.1-.7,6.2,4.4,2.2,7.6s-5.5,2.5-8.7,2.2c-1-4.3,1.9-9.3,6.5-9.8Z"/>
        <path class="st1" d="M96.6,59.9c4-.7,8.5,2.6,9.1,6.6s-.5,3.6-4.1,3.2c-5.6-.7-10.9-8.9-5.1-9.8Z"/>
        <path class="st1" d="M57.8,41.9c6.4-.9,6.6,4.2,2.5,7.6s-5.3,2.5-8.4,2.2c-1.6-3.9,1.9-9.3,5.9-9.8Z"/>
        <path class="st1" d="M45.5,59.9c5.2-1.2,11.1,4.6,9,9.8-3.3.5-8.6-1-10.2-4.1s-1.5-5.1,1.3-5.8Z"/>
      </g>
    </g>
  </g>
  <g>
    <polyline class="st4" points="3.8 106.2 40.6 106.2 91.4 106.2 127.6 106.2"/>
    <path class="st3" d="M91.4,85.7c0,6.2,0,12.4,0,18.5"/>
    <path class="st3" d="M40.6,85.7c0,6.2,0,12.4,0,18.5"/>
    <line class="st3" x1="65.8" y1="53.4" x2="65.8" y2="104.8"/>
    <path class="st3" d="M15.9,84.3c8.2,0,16.5.2,24.7.2,16.9,0,33.9-.1,50.8,0s16.5.3,24.7.2"/>
    <path class="st2" d="M118,29.8v69"/>
    <polyline class="st2" points="13.9 29.8 13.9 44.2 13.9 84.3 13.9 98.9"/>
    <path class="st3" d="M92.5,43.9c8,0,15.9,0,23.9,0"/>
    <path class="st3" d="M39.4,44.1c-8,0-15.9,0-23.9,0"/>
    <path class="st1" d="M92.8,24.2c0,3.8.1,38.4-.2,41.2-.5,0-2.2.2-2.4.2-.3-2.9-.1-37.6-.2-41.4,0-1.8,2.8-1.9,2.8,0h0Z"/>
    <polygon class="st1" points="42 24.2 42 63.8 42 65.2 39.2 65.2 39.2 63.8 39.2 24.2 39.2 22.8 42 22.8 42 24.2 42 24.2"/>
    <polygon class="st1" points="67.5 23.7 67.2 45.6 67.2 47 64.4 46.9 64.4 45.5 64.7 23.6 64.7 22.2 67.5 22.3 67.5 23.7 67.5 23.7"/>
    <path class="st4" d="M3.5,22.3c12.4-.1,24.7-.3,37.1-.3,16.9,0,33.9,0,50.8,0h36.5"/>
  </g>
</svg>